<svg xmlns="http://www.w3.org/2000/svg" x="0px" y="0px" viewBox="0 0 864 864" enable-background="new 0 0 864 864"><style>.ls0{fill:#c43130}.fs0{fill:#231f20}</style><g transform="matrix(.82567 0 0 .82567 75.3116175031 75.3116175031)"><path class="ls0" d="M227.5,323.6h-20.4h-90.9v27.3h90.9v84.4v7.6v48.4c0,12.1-9.8,21.8-21.8,21.8h-10h-10	c-12.1,0-21.8-9.8-21.8-21.8v-33.7h-27.3v33.7c0,27.1,22,49.1,49.1,49.1h10h10c27.1,0,49.1-22,49.1-49.1v-48.4v-7.6V323.6H227.5z"/><path class="ls0" d="M442,323.7h-41.8H386h-13.1v216.8h27.3v-69.2H432v0h10c12.1,0,21.8,9.8,21.8,21.8v47.4h27.3v-47.4	c0-13.9-5.8-26.5-15.2-35.5c9.3-8.9,15.2-21.5,15.2-35.5v-20.4v-2.1v-26.8C491.1,345.7,469.1,323.7,442,323.7z M463.8,401.9v20.4	c0,12.1-9.8,21.8-21.8,21.8h0h-10h-31.8V351H442c12.1,0,21.8,9.8,21.8,21.8v26.8V401.9z"/><g><path transform="rotate(-45 303.9934900736 430.1317964115)" class="ls0" d="M287.6 413.7H320.5V446.59999999999997H287.6z"/><path transform="rotate(-45 560.3052242646 430.1347761096)" class="ls0" d="M543.9 413.7H576.8V446.59999999999997H543.9z"/></g><path class="ls0" d="M698.7,323.7h-41.8h-14.2h-13.1v216.8h27.3v-69.2h41.8c27.1,0,49.1-22,49.1-49.1v-7.8v-2.2v-39.4	C747.8,345.7,725.9,323.7,698.7,323.7z M720.6,414.5v7.8c0,12.1-9.8,21.8-21.8,21.8h-41.8V351h41.8c12.1,0,21.8,9.8,21.8,21.8v39.4	V414.5z"/></g><g><path class="fs0" d="M681.8,182.2C615.1,115.4,526.4,78.7,432,78.7s-183.1,36.7-249.8,103.5C115.4,248.9,78.7,337.6,78.7,432	s36.7,183.1,103.5,249.8c66.7,66.7,155.4,103.5,249.8,103.5c94.4,0,183.1-36.7,249.8-103.5c66.7-66.7,103.5-155.4,103.5-249.8	C785.3,337.6,748.6,248.9,681.8,182.2z M669.1,669.1c-63.3,63.3-147.5,98.2-237.1,98.2s-173.8-34.9-237.1-98.2S96.7,521.6,96.7,432	s34.9-173.8,98.2-237.1S342.4,96.7,432,96.7s173.8,34.9,237.1,98.2s98.2,147.5,98.2,237.1S732.4,605.8,669.1,669.1z"/></g></svg>